<svg width="239" height="76" viewBox="0 0 239 76" fill="none" xmlns="http://www.w3.org/2000/svg">
<path d="M117.343 20.4H103.903V54H117.343C126.607 54 133.663 46.704 133.663 37.2C133.663 27.696 126.607 20.4 117.343 20.4ZM117.343 46.608H111.583V27.792H117.343C122.623 27.792 126.271 31.44 126.271 37.2C126.271 42.96 122.623 46.608 117.343 46.608ZM155.646 54H163.902L156.75 41.664C160.446 39.792 162.942 36.048 162.942 31.92C162.942 25.536 157.806 20.4 151.422 20.4H137.982V54H145.662V42.96H149.31L155.646 54ZM145.662 27.6H151.422C153.534 27.6 155.262 29.472 155.262 31.92C155.262 34.368 153.534 36.24 151.422 36.24H145.662V27.6ZM183.076 54.672C192.724 54.672 200.548 47.088 200.548 37.2C200.548 27.312 192.724 19.728 183.076 19.728C173.428 19.728 165.604 27.312 165.604 37.2C165.604 47.088 173.428 54.672 183.076 54.672ZM183.076 47.184C177.604 47.184 173.284 43.2 173.284 37.2C173.284 31.2 177.604 27.216 183.076 27.216C188.548 27.216 192.868 31.2 192.868 37.2C192.868 43.2 188.548 47.184 183.076 47.184ZM217.592 20.4H204.872V54H212.552V43.44H217.592C224.216 43.44 229.352 38.304 229.352 31.92C229.352 25.536 224.216 20.4 217.592 20.4ZM217.592 36.24H212.552V27.6H217.592C219.944 27.6 221.672 29.472 221.672 31.92C221.672 34.368 219.944 36.24 217.592 36.24ZM232.243 54.672C234.739 54.672 236.803 52.608 236.803 50.112C236.803 47.616 234.739 45.552 232.243 45.552C229.747 45.552 227.683 47.616 227.683 50.112C227.683 52.608 229.747 54.672 232.243 54.672Z" fill="white"/>
<rect x="0.5" y="0.5" width="49.5203" height="49.5203" rx="8.5" fill="#3B3B3B" stroke="#404040"/>
<rect x="25.4795" y="25.0405" width="50.5203" height="50.5203" rx="9" fill="white"/>
</svg>
