<svg className="group-hover:rotate-90 transform rotate-0 duration-300" width="61" height="61" viewBox="0 0 61 61" fill="none" xmlns="http://www.w3.org/2000/svg">
        <path fillRule="evenodd" clipRule="evenodd" d="M17.6898 0.914062H43.3385C53.3673 0.914062 60.0827 7.9549 60.0827 18.4274V42.5999C60.0827 53.0429 53.3673 60.0807 43.3385 60.0807H17.6898C7.66102 60.0807 0.916016 53.0429 0.916016 42.5999V18.4274C0.916016 7.9549 7.66102 0.914062 17.6898 0.914062ZM39.4039 39.3724C40.4098 38.3695 40.4098 36.7424 39.4039 35.7366L34.1381 30.4708L39.4039 25.202C40.4098 24.1991 40.4098 22.5424 39.4039 21.5366C38.3981 20.5278 36.771 20.5278 35.7356 21.5366L30.4993 26.7995L25.2335 21.5366C24.1981 20.5278 22.571 20.5278 21.5652 21.5366C20.5593 22.5424 20.5593 24.1991 21.5652 25.202L26.831 30.4708L21.5652 35.707C20.5593 36.7424 20.5593 38.3695 21.5652 39.3724C22.0681 39.8753 22.7485 40.1445 23.3993 40.1445C24.0798 40.1445 24.7306 39.8753 25.2335 39.3724L30.4993 34.1391L35.7652 39.3724C36.2681 39.9079 36.9189 40.1445 37.5698 40.1445C38.2502 40.1445 38.901 39.8753 39.4039 39.3724Z" fill="#D32424" />
      </svg>