<svg width="930" height="959" viewBox="0 0 930 959" fill="none" xmlns="http://www.w3.org/2000/svg">
<g opacity="0.67">
<path d="M335.5 266.5L335.5 137C335.5 65.4791 393.479 7.5 465 7.49999C536.521 7.49999 594.5 65.4791 594.5 137L594.5 266.5L335.5 266.5Z" stroke="#FE7B01" stroke-width="15"/>
<path d="M662.718 609.5L662.718 480C662.718 408.479 720.697 350.5 792.218 350.5C863.738 350.5 921.718 408.479 921.718 480L921.718 609.5L662.718 609.5Z" stroke="#525298" stroke-width="15"/>
<path d="M594.5 951.499L465 951.499C393.479 951.499 335.5 893.52 335.5 821.999C335.5 750.478 393.479 692.499 465 692.499L594.5 692.499L594.5 951.499Z" stroke="#404040" stroke-width="15"/>
<path d="M792 951.499L662.5 951.499L662.5 692.499L792 692.499C863.521 692.499 921.5 750.478 921.5 821.999C921.5 893.52 863.521 951.499 792 951.499Z" stroke="#FE7B01" stroke-width="15"/>
<path d="M662.718 137L662.718 7.5L921.718 7.49999L921.718 137C921.718 208.521 863.738 266.5 792.218 266.5C720.697 266.5 662.718 208.521 662.718 137Z" stroke="#01CC8F" stroke-width="15"/>
<circle cx="137" cy="137" r="129.5" stroke="#525298" stroke-width="15"/>
<circle cx="465" cy="479.5" r="129.5" stroke="#D32424" stroke-width="15"/>
<path d="M266.5 507L266.5 951.109L150 951.109C71.2994 951.109 7.49998 887.309 7.49998 808.609L7.5 364.5L124 364.5C202.701 364.5 266.5 428.299 266.5 507Z" stroke="#276AEC" stroke-width="15"/>
<path d="M116.459 647.228C133.918 637.062 151.376 626.937 168.751 616.603C169.959 615.895 170.793 613.728 170.918 612.187C173.668 575.395 191.876 548.603 224.209 531.562C229.584 528.728 235.918 527.562 242.959 528.145C252.251 528.895 258.126 536.27 257.168 545.562C256.334 553.687 252.251 560.27 247.418 566.478C236.668 580.187 223.126 590.937 209.251 601.187C200.459 607.687 191.293 613.645 182.043 620.062C184.334 624.562 189.918 627.77 194.751 627.353C203.918 626.603 208.293 624.52 215.209 621.77C236.918 613.145 255.668 599.645 272.293 583.52C284.668 571.52 296.168 558.645 308.043 546.145C309.084 545.062 310.043 543.853 311.084 542.895C312.709 541.395 314.334 540.812 315.876 541.853C317.543 542.603 316.918 545.312 316.459 546.728C315.709 549.062 314.459 551.312 312.959 553.228C289.584 583.687 262.668 610.187 227.751 627.312C220.084 631.062 211.751 633.687 203.459 635.77C191.543 638.728 181.001 636.27 173.918 624.812C156.959 633.895 140.251 642.853 123.251 651.978C129.501 651.978 135.418 651.978 141.376 651.978C142.376 651.978 143.376 651.853 144.376 651.937C147.084 652.145 150.668 651.603 150.918 655.52C151.168 659.353 147.543 659.395 145.168 659.437C133.126 659.728 121.043 659.895 109.001 659.603C104.084 659.478 101.709 656.228 103.709 651.812C109.376 638.978 115.668 626.353 122.001 613.812C122.584 612.645 124.709 610.853 127.084 612.02C128.834 613.103 128.793 615.937 128.251 617.312C124.959 625.603 121.293 633.77 117.709 641.978C117.084 643.437 116.376 644.895 115.709 646.353C114.209 648.603 115.084 648.02 116.459 647.228ZM178.584 609.562C178.459 611.062 180.709 609.103 181.084 608.853C200.709 595.77 219.876 582.103 235.751 564.478C240.001 559.77 243.584 554.145 246.209 548.353C249.668 540.645 245.293 535.27 236.918 536.812C231.501 537.812 225.876 539.603 221.168 542.437C201.126 554.395 185.168 577.687 181.084 594.228C179.584 600.562 179.584 602.312 178.584 609.562Z" fill="#404040"/>
</g>
</svg>
