<svg width="90" height="90" viewBox="0 0 90 90" fill="none" xmlns="http://www.w3.org/2000/svg">
<path d="M11.4563 41.25H18.75C20.7391 41.25 22.6468 42.0402 24.0533 43.4467C25.4598 44.8532 26.25 46.7609 26.25 48.75V52.5C26.25 54.4891 27.0402 56.3968 28.4467 57.8033C29.8532 59.2098 31.7609 60 33.75 60C35.7391 60 37.6468 60.7902 39.0533 62.1967C40.4598 63.6032 41.25 65.5109 41.25 67.5V78.5437L11.4563 41.25ZM30 14.7562V20.625C30 23.1114 30.9877 25.496 32.7459 27.2541C34.504 29.0123 36.8886 30 39.375 30H41.25C43.2391 30 45.1468 30.7902 46.5533 32.1967C47.9598 33.6032 48.75 35.5109 48.75 37.5C48.75 39.4891 49.5402 41.3968 50.9467 42.8033C52.3532 44.2098 54.2609 45 56.25 45C58.2391 45 60.1468 44.2098 61.5533 42.8033C62.9598 41.3968 63.75 39.4891 63.75 37.5C63.75 35.5109 64.5402 33.6032 65.9467 32.1967C67.3532 30.7902 69.2609 30 71.25 30H75.24L30 14.7562ZM56.25 76.83V67.5C56.25 65.5109 57.0402 63.6032 58.4467 62.1967C59.8532 60.7902 61.7609 60 63.75 60H75.24L56.25 76.83ZM78.75 45C78.75 49.4321 77.877 53.8208 76.1809 57.9156C74.4848 62.0103 71.9988 65.7309 68.8649 68.8649C65.7309 71.9988 62.0103 74.4848 57.9156 76.1809C53.8208 77.877 49.4321 78.75 45 78.75C40.5679 78.75 36.1792 77.877 32.0844 76.1809C27.9897 74.4848 24.2691 71.9988 21.1351 68.8649C18.0012 65.7309 15.5152 62.0103 13.8191 57.9156C12.123 53.8208 11.25 49.4321 11.25 45C11.25 36.0489 14.8058 27.4645 21.1351 21.1351C27.4645 14.8058 36.0489 11.25 45 11.25C53.9511 11.25 62.5355 14.8058 68.8649 21.1351C75.1942 27.4645 78.75 36.0489 78.75 45Z" stroke="#525298" stroke-width="6" stroke-linecap="round" stroke-linejoin="round"/>
</svg>
