<svg width="45" height="45" viewBox="0 0 45 45" fill="none" xmlns="http://www.w3.org/2000/svg">
<path d="M39.3722 12.0629C38.8468 11.1249 37.8484 10.5604 36.7701 10.5841L11.6307 11.117C10.4969 11.1274 9.52352 11.7685 9.03558 12.7836C8.53822 13.8165 8.88707 15.3904 9.67157 16.2196L15.763 22.6556C16.3878 23.3154 17.384 23.4588 18.1702 23.0004L28.7721 16.8355C29.3097 16.5106 30.0055 16.697 30.3086 17.2472C30.6156 17.7828 30.4319 18.4683 29.8943 18.7932L19.2775 24.9557C18.4903 25.4123 18.1144 26.3511 18.3694 27.226L20.8515 35.7854C21.1388 36.8003 21.9047 37.537 22.8903 37.8011C23.0063 37.8322 23.1367 37.8671 23.2566 37.8836C24.4263 38.0407 25.5321 37.5085 26.1585 36.504L39.3137 15.0643C39.8839 14.154 39.8977 13.0009 39.3722 12.0629" fill="#525298"/>
</svg>
