<svg width="24" height="23" viewBox="0 0 24 23" fill="none" xmlns="http://www.w3.org/2000/svg">
<path d="M17.9189 13.6526C17.6599 13.8919 17.5409 14.238 17.5999 14.5774L18.4889 19.2681C18.5639 19.6656 18.3879 20.068 18.0389 20.2977C17.6969 20.5361 17.2419 20.5647 16.8689 20.374L12.4399 18.1717C12.2859 18.0935 12.1149 18.0515 11.9399 18.0468H11.6689C11.5749 18.0601 11.4829 18.0887 11.3989 18.1326L6.96888 20.3454C6.74988 20.4503 6.50188 20.4875 6.25888 20.4503C5.66688 20.3435 5.27188 19.8058 5.36888 19.2385L6.25888 14.5478C6.31788 14.2056 6.19888 13.8576 5.93988 13.6145L2.32888 10.2776C2.02688 9.99827 1.92188 9.57877 2.05988 9.20028C2.19388 8.82274 2.53588 8.54721 2.94888 8.48524L7.91888 7.79784C8.29688 7.76066 8.62888 7.54138 8.79888 7.21723L10.9889 2.93651C11.0409 2.84117 11.1079 2.75346 11.1889 2.6791L11.2789 2.61236C11.3259 2.56278 11.3799 2.52179 11.4399 2.48842L11.5489 2.45028L11.7189 2.38354H12.1399C12.5159 2.42073 12.8469 2.63524 13.0199 2.95558L15.2389 7.21723C15.3989 7.52899 15.7099 7.74541 16.0689 7.79784L21.0389 8.48524C21.4589 8.54244 21.8099 8.81892 21.9489 9.20028C22.0799 9.58259 21.9669 10.0021 21.6589 10.2776L17.9189 13.6526Z" fill="#FE7B01"/>
</svg>
